<svg version="1.1" id="Слой_1" xmlns="http://www.w3.org/2000/svg" xmlns:xlink="http://www.w3.org/1999/xlink" x="0px" y="0px"
	 viewBox="0 0 1080 1080" style="enable-background:new 0 0 1080 1080;" xml:space="preserve">
<style type="text/css">
	.st0{fill-rule:evenodd;clip-rule:evenodd;fill:#020203;}
</style>
<path class="st0" d="M495.2,484.4c-3-1-6-2.1-8.9-3.3c-18.7-7.9-35.3-21.9-35.3-45.2c0-26,8.2-39.8,20.6-43.4
	c5.9-1.7,11.8-0.7,16.7,1.5c4.9,2.2,9.1,5.8,11.6,10.1c7.1,12,14.4,25.6,21,38c2.3,4.3,4.6,8.6,6.7,12.5c4.1,7.6,7.9,14.3,11,19.3
	c0.8-0.2,1.6-0.3,2.5-0.4c5.7-14.3,13.5-31.8,22.2-46.7c5.5-9.5,11.5-18.2,17.7-24.5c5.9-6,13.2-10.9,21-10c7.6,0.9,13.5,3.8,17.9,8
	c4.3,4.2,6.8,9.4,8.3,14.6c2.5,8.6,2.3,18.1,2.2,24c0,1,0,1.9,0,2.7c0,4.3-2,9.5-5.4,14.7c-3.5,5.3-8.7,10.9-15.8,16.1
	c-6.2,4.5-13.9,8.7-23.1,12h142.6c4.9,0,8.9,4,8.9,8.9v46.6c0,4.9-5.5,8.9-10.4,8.9h-0.4v130.6c0,4.9-2.5,8.9-7.4,8.9h-359
	c-4.9,0-7.5-4-7.5-8.9V548.9h-0.4c-4.9,0-10.4-4-10.4-8.9v-46.6c0-4.9,4-8.9,8.9-8.9H495.2z M531.6,493.2H355.5c-1.6,0-3,1.3-3,3
	V537c0,1.6,1.3,3,3,3h204.7c-4.5-18.1-10.4-32.7-15.4-41c-1,0.3-2.1,0.4-3.1,0.4c-0.3,0-0.6,0-0.9,0c-2.6,4.4-5.9,9.1-9.7,13.5
	c-7.2,8.4-17,16.5-28.8,18.2c-2.8,0.4-5.4-1.6-5.8-4.4c-0.4-2.8,1.6-5.4,4.4-5.8c8.1-1.1,15.8-6.9,22.4-14.7
	C526.5,502.5,529.3,497,531.6,493.2z M562.4,548.9c0.8,4.1,1.5,8.5,2.1,13.1c0.4,2.8,3,4.8,5.8,4.5c2.8-0.4,4.8-3,4.4-5.8
	c-0.5-4.1-1.2-8-1.8-11.8h142.2c1.6,0,3,1.3,3,3v124.7c0,1.6-1.3,3-3,3h-167c-1.6,0-3-1.3-3-3V551.8c0-1.6,1.3-3,3-3H562.4z
	 M570.8,540c-4.5-19.4-10.9-37-16.5-46.8h170.2c1.6,0,3,1.3,3,3V537c0,1.6-1.3,3-3,3H570.8z M474.4,402.4
	c-5.4,1.5-13.1,8.7-13.1,33.4c0,17.3,11.9,28.5,29,35.7c12.7,5.3,27.4,8,39.8,9c0.1-0.2,0.2-0.3,0.3-0.5c-0.1-0.2-0.3-0.5-0.4-0.7
	c-3.3-5.3-7.2-12.2-11.3-19.9c-2.2-4-4.5-8.3-6.8-12.7c-6.6-12.4-13.8-25.7-20.7-37.5c-1.3-2.1-3.8-4.4-7-5.9
	C480.8,402,477.4,401.5,474.4,402.4z M603.2,464c-10.7,7.8-26.9,14.8-50,16.6c-0.6-1.3-1.5-2.4-2.5-3.4
	c5.5-13.9,13.2-30.9,21.5-45.2c5.4-9.2,10.9-17.1,16.1-22.4c5.5-5.6,9.7-7.3,12.4-7c5.6,0.7,9.3,2.6,11.9,5.2
	c2.7,2.6,4.4,6,5.6,10.1c2,7,1.9,14.7,1.8,20.6c0,1.1,0,2.2,0,3.2c0,1.4-0.9,4.7-3.7,9C613.7,454.7,609.4,459.5,603.2,464z
	 M361.9,551.8c0-1.6,1.3-3,3-3h167c1.6,0,3,1.3,3,3v124.7c0,1.6-1.3,3-3,3h-167c-1.6,0-3-1.3-3-3V551.8z"/>
</svg>
